Genre:Action | Fantasy | Sci-Fi
Language:English
IMDb:http://www.imdb.com/title/tt1594917/
Source:720p.BluRay.x264-7SinS


Format : MPEG-4
Format profile : Base Media
Codec ID : isom
File size : 2.41 GiB
Duration : 1h 34mn
Overall bit rate : 3 649 Kbps


Video
Format profile : High@L4.1
Format settings, CABAC : Yes
Format settings, ReFrames : 3 frames
Codec ID : avc1
Codec ID/Info : Advanced Video Coding
Duration : 1h 34mn
Bit rate mode : Variable
Bit rate : 3 222 Kbps
Maximum bit rate : 22.5 Mbps
Width : 1 280 pixels
Height : 544 pixels
Display aspect ratio : 2.35:1
Frame rate mode : Constant
Frame rate : 23.976 fps
Color space : YUV
Chroma subsampling : 4:2:0
Bit depth : 8 bits
Scan type : Progressive
Bits/(Pixel*Frame) : 0.193
Stream size : 2.11 GiB (88%)
Writing library : x264

Audio
ID : 2
Format : AAC
Format/Info : Advanced Audio Codec
Format version : Version 4
Format profile : LC
Format settings, SBR : No
Codec ID : 40
Duration : 1h 34mn
Bit rate mode : Variable
Bit rate : 447 Kbps
Maximum bit rate : 557 Kbps
Channel(s) : 6 channels
Channel positions : Front: L C R, Side: L R, LFE
Sampling rate : 48.0 KHz
Stream size : 302 MiB (12%)


Plot:
Herman Melville's classic novel Moby Dick, is recreated in a world where Captain Ahab and his crew search for a Great White Dragon.
 
http://www.pix2links.com/images/79715215591764680584.png 
http://www.pix2links.com/images/18997808452565504562.png 
http://www.pix2links.com/images/66224832294244432243.png 
http://www.pix2links.com/images/66224832294244432243.png 
http://www.pix2links.com/images/87507576279265950061.png 
http://www.pix2links.com/images/38787102933626055204.png


Greets:

INK,CRYS,IMAGINE,LKRG,FXG,3Li,FLAWL3SS,TA,iLLUSiON,ViSiON,DTRG SAFCuk009,LU,TheFalcon007,MYSTiC,PrisM,Noir,WBZ,LAP,Rx,Kingdom,SAFCuk009+Fabreezy,HDLiTE,TWiZTED,ExtraTorrentRG.ELEKTRI4KA,MAGNAT,CM8
And to all the other p2p grps past and present
